<?xml version="1.0" encoding="UTF-8" standalone="no"?>
<!-- Created with Inkscape (http://www.inkscape.org/) -->

<svg
   width="541"
   height="300"
   viewBox="0 0 541 300"
   version="1.1"
   id="svg1"
   xmlns="http://www.w3.org/2000/svg"
   xmlns:svg="http://www.w3.org/2000/svg">
  <defs
     id="defs1" />
  <g
     id="layer1">
    <g
       id="text49"
       style="font-size:199.535px;font-family:Quicksand;-inkscape-font-specification:'Quicksand, @wght=700';font-variation-settings:'wght' 700;fill:#267acc;stroke-width:0.249419"
       transform="scale(1.0091122,0.99097008)"
       aria-label="Quo.js">
      <path
         style="font-size:253.333px;fill:#3a3a3a"
         d="m 202.46197,222.70404 q 5.32,0 9.87999,4.30666 4.56,4.56 4.56,10.38666 0,5.82665 -5.32,10.89331 -5.06666,5.32 -13.17331,9.37332 -8.10666,4.05333 -16.97331,6.33333 -8.61333,2.28 -15.70665,2.28 -15.70664,0 -25.07997,-3.04 -9.37332,-2.78666 -15.45331,-6.58666 -6.07999,-3.54666 -11.39998,-6.58666 -5.32,-2.78666 -12.91999,-2.78666 -4.813322,0 -7.853318,1.52 -2.786663,1.77333 -6.333325,3.29333 -3.293329,1.77333 -9.37332,1.77333 -6.333325,0 -10.639986,-4.81333 -4.306661,-4.81332 -4.306661,-10.38665 0,-9.87999 8.866655,-13.17332 l 52.439925,-19.50664 22.79997,5.57333 -49.146597,18.23998 14.439977,-8.35999 q 8.86666,0 15.45332,2.53333 6.83999,2.78666 12.91998,6.07999 6.07999,3.29333 12.41332,5.82666 6.58665,2.78666 14.94664,2.78666 6.83999,0 11.39999,-2.28 4.81332,-2.27999 8.35999,-5.06666 4.30666,-3.29333 7.59999,-6.07999 3.54666,-2.53333 7.59998,-2.53333 z m -1.01333,-95.75987 q 0,18.99997 -6.33332,35.46662 -6.33333,16.46664 -17.98664,29.13329 -11.39999,12.41332 -27.35997,19.50664 -15.70664,7.09333 -34.45328,7.09333 -18.746646,0 -34.453292,-7.09333 -15.706645,-7.09332 -27.359963,-19.50664 -11.399984,-12.66665 -17.733309,-29.13329 -6.333325,-16.46665 -6.333325,-35.46662 0,-18.99997 6.333325,-35.466619 6.333325,-16.466644 17.733309,-28.879961 11.653318,-12.666649 27.359963,-19.759973 15.706646,-7.093324 34.453292,-7.093324 18.74664,0 34.45328,7.093324 15.95998,7.093324 27.35997,19.759973 11.65331,12.413317 17.98664,28.879961 6.33332,16.466649 6.33332,35.466619 z m -32.93329,0 q 0,-16.97331 -6.83999,-30.653292 -6.83999,-13.933314 -18.74664,-22.03997 -11.90665,-8.106656 -27.61329,-8.106656 -15.70665,0 -27.613301,8.106656 -11.90665,8.106656 -18.746641,21.786637 -6.586658,13.679985 -6.586658,30.906625 0,16.97331 6.586658,30.90663 6.839991,13.67998 18.746641,21.78663 11.906651,8.10666 27.613301,8.10666 15.70664,0 27.61329,-8.10666 11.90665,-8.10665 18.74664,-21.78663 6.83999,-13.93332 6.83999,-30.90663 z m 159.0929,-46.866603 q 6.58666,0 10.89332,4.559994 4.30666,4.30666 4.30666,10.893318 v 64.346581 q 0,26.8533 -14.94664,42.55994 -14.94665,15.70665 -43.06661,15.70665 -28.11996,0 -43.06661,-15.70665 -14.69331,-15.70664 -14.69331,-42.55994 V 95.530879 q 0,-6.586658 4.30666,-10.893318 4.30666,-4.559994 10.89331,-4.559994 6.58666,0 10.89332,4.559994 4.30666,4.30666 4.30666,10.893318 v 64.346581 q 0,15.45331 6.84,23.0533 6.83999,7.34666 20.51997,7.34666 13.93331,0 20.7733,-7.34666 6.83999,-7.59999 6.83999,-23.0533 V 95.530879 q 0,-6.586658 4.30666,-10.893318 4.30667,-4.559994 10.89332,-4.559994 z m 179.61306,67.893243 q 0,20.7733 -9.37332,36.73328 -9.11998,15.70665 -24.82663,24.5733 -15.45331,8.86666 -34.70662,8.86666 -19.25331,0 -34.95995,-8.86666 -15.45331,-8.86665 -24.82664,-24.5733 -9.11998,-15.95998 -9.11998,-36.73328 0,-20.77331 9.11998,-36.47995 9.37333,-15.959981 24.82664,-24.826635 15.70664,-9.119988 34.95995,-9.119988 19.25331,0 34.70662,9.119988 15.70665,8.866654 24.82663,24.826635 9.37332,15.70664 9.37332,36.47995 z m -30.39995,0 q 0,-12.91998 -5.32,-22.2933 -5.06666,-9.62666 -13.93331,-14.94665 -8.61332,-5.31999 -19.25331,-5.31999 -10.63998,0 -19.50664,5.31999 -8.61332,5.31999 -13.93331,14.94665 -5.06666,9.37332 -5.06666,22.2933 0,12.66665 5.06666,22.2933 5.31999,9.37332 13.93331,14.69332 8.86666,5.31999 19.50664,5.31999 10.63999,0 19.25331,-5.31999 8.86665,-5.32 13.93331,-14.69332 5.32,-9.62665 5.32,-22.2933 z"
         id="path1" />
    </g>
  </g>
</svg>
