<?xml version="1.0" encoding="UTF-8" standalone="no"?>
<!-- Created with Inkscape (http://www.inkscape.org/) -->

<svg
   width="12.7mm"
   height="12.700001mm"
   viewBox="0 0 12.7 12.700001"
   version="1.1"
   id="svg1"
   xml:space="preserve"
   xmlns="http://www.w3.org/2000/svg"
   xmlns:svg="http://www.w3.org/2000/svg"><defs
     id="defs1" /><g
     id="layer1"
     transform="translate(-469.23334)"><g
       id="g37-3-2"
       transform="matrix(0.22812582,0,0,0.23619289,465.85333,-41.873697)"><path
         style="opacity:1;fill:#1a7fe2;fill-opacity:1;stroke:none;stroke-width:1.74625;stroke-linejoin:round"
         d="m 29.093099,214.52217 c -0.0495,-1.37124 10.72246,-2.27038 16.17262,-2.51176 4.14214,-0.18345 12.5221,-1.30843 12.41188,0.81488 -0.34335,6.6145 -12.47972,6.66745 -14.67729,6.72107 -1.96556,0.048 -13.74358,-0.48752 -13.90721,-5.02419 z"
         id="path15-5-0" /><path
         style="display:inline;opacity:1;fill:#242229;fill-opacity:1;stroke:none;stroke-width:1.41671;stroke-linejoin:round"
         d="m 36.735599,202.3939 c 0,0 -3.24608,-2.94932 2.7027,-9.60768 -2.47308,7.36872 0.13455,8.95248 0.13455,8.95248 z"
         id="path6-3-5-6-2" /><path
         style="opacity:1;fill:#242229;fill-opacity:1;stroke:none;stroke-width:1.74625;stroke-linejoin:round"
         d="m 30.875179,203.81664 c 0,0 -5.298145,-8.74109 2.5852,-16.37484 -3.27733,8.44817 1.0015,13.89955 1.0015,13.89955 z"
         id="path6-3-2-3" /><path
         style="display:inline;opacity:1;fill:#242229;fill-opacity:1;stroke:none;stroke-width:1.74625;stroke-linejoin:round"
         d="m 28.159559,214.73814 c -0.5755,-0.9916 -0.58473,-6.82827 1.34075,-9.43151 2.8976,-3.91756 8.16499,-6.59409 13.03767,-6.6113 4.90707,-0.0173 10.21296,2.65382 13.17637,6.56507 1.98955,2.6259 2.57859,8.9873 1.34076,9.89383 -4.23402,3.10081 -8.96872,-0.21105 -13.45377,-0.27743 -5.1469,-0.0762 -13.15583,3.80012 -15.44178,-0.13866 z"
         id="path1-9-7" /><path
         style="opacity:1;fill:#1a7fe2;fill-opacity:1;stroke:none;stroke-width:2.6313;stroke-linejoin:round"
         d="m 33.141089,210.5521 c -1.59437,-0.98521 -2.34805,-4.14679 -0.76352,-5.14774 2.00465,-1.26632 6.22208,1.95462 5.78812,4.28568 -0.2931,1.57441 -3.66225,1.70387 -5.0246,0.86206 z"
         id="path3-1-5" /><path
         style="opacity:1;fill:#1a7fe2;fill-opacity:1;stroke:none;stroke-width:2.6313;stroke-linejoin:round"
         d="m 47.242829,210.01084 c -1.14734,-2.0615 2.80555,-5.47963 5.06045,-4.78571 1.5744,0.48451 1.43571,3.64993 0.39409,4.92607 -1.02515,1.25593 -4.66614,1.27622 -5.45454,-0.14043 z"
         id="path4-2-9" /><path
         style="opacity:1;fill:#242229;fill-opacity:1;stroke:none;stroke-width:1.74625;stroke-linejoin:round"
         d="m 24.02831,220.82699 c -0.598365,-0.0103 -0.9535,-0.97641 -1.536504,-1.11152 -0.695238,-0.16112 -2.079125,1.47607 -2.25572,0.7846 -1.01426,-3.9714 1.397219,-6.1159 3.628767,-6.2441 2.278574,-0.13091 5.242626,1.88508 4.217216,6.01525 -0.20234,0.81498 -1.712888,-0.76413 -2.517255,-0.52304 -0.585385,0.17546 -0.925479,1.08933 -1.536504,1.07881 z"
         id="path5-7-2" /><path
         style="opacity:1;fill:#242229;fill-opacity:1;stroke:none;stroke-width:1.74625;stroke-linejoin:round"
         d="m 61.180744,220.91055 c 0.59837,-0.0103 0.9535,-0.97641 1.53651,-1.11152 0.69524,-0.16112 2.07912,1.47607 2.25572,0.7846 1.01426,-3.9714 -1.39722,-6.1159 -3.62877,-6.2441 -2.27857,-0.13091 -5.24263,1.88508 -4.21722,6.01525 0.20234,0.81498 1.71289,-0.76413 2.51726,-0.52304 0.58538,0.17546 0.92548,1.08933 1.5365,1.07881 z"
         id="path5-4-0-2" /><path
         style="opacity:1;fill:#242229;fill-opacity:1;stroke:none;stroke-width:1.74625;stroke-linejoin:round"
         d="m 29.828439,212.50594 c 0,0 -9.043602,-4.81734 -3.596061,-14.08193 0.05343,8.81385 3.661441,8.3609 3.661441,8.3609 z"
         id="path6-9-8" /><path
         style="opacity:1;fill:#242229;fill-opacity:1;stroke:none;stroke-width:1.41671;stroke-linejoin:round"
         d="m 48.704369,202.49024 c 0,0 3.24608,-2.94932 -2.7027,-9.60768 2.47308,7.36872 -0.13455,8.95248 -0.13455,8.95248 z"
         id="path6-3-5-8-3-9" /><path
         style="opacity:1;fill:#242229;fill-opacity:1;stroke:none;stroke-width:1.74625;stroke-linejoin:round"
         d="m 54.564789,203.91298 c 0,0 5.29817,-8.74109 -2.5852,-16.37484 3.27733,8.44817 -1.0015,13.89955 -1.0015,13.89955 z"
         id="path6-3-56-6-7" /><path
         style="opacity:1;fill:#242229;fill-opacity:1;stroke:none;stroke-width:1.74625;stroke-linejoin:round"
         d="m 55.611529,212.60228 c 0,0 9.04362,-4.81734 3.59608,-14.08193 -0.0534,8.81385 -3.66146,8.3609 -3.66146,8.3609 z"
         id="path6-1-0-3" /><path
         style="display:inline;opacity:1;fill:#242229;fill-opacity:1;stroke:none;stroke-width:1.74625;stroke-linejoin:round"
         d="m 30.929279,217.16864 c 7.44518,0.2683 8.01106,-1.48277 12.0632,-1.50381 4.03615,-0.0209 4.22405,1.82717 12.0305,1.37305 -4.4529,2.5535 -8.0414,2.53835 -12.19396,2.54994 -4.0477,0.0113 -7.67403,-0.0395 -11.89974,-2.41918 z"
         id="path14-6-6" /><path
         style="opacity:1;fill:#1a7fe2;fill-opacity:1;stroke-width:1.74625;stroke-linejoin:round"
         d="m 65.710458,128.80784 c -0.668967,-0.80404 0.27569,-3.06294 1.512144,-3.80696 1.146604,-0.68995 2.694802,0.94104 3.976029,0.55479 1.024385,-0.30882 1.341618,-2.0008 2.404107,-2.12671 1.109082,-0.13143 1.842146,1.55813 2.958904,1.57192 1.309378,0.0162 2.322932,-2.30165 3.513698,-1.75685 1.706241,0.78065 1.904003,4.4498 1.175315,5.17397 -0.728687,0.72417 -3.098261,-1.67143 -4.762526,-1.50127 -1.271286,0.2973 -2.033597,2.37676 -3.265509,2.28787 -1.31998,-0.0952 -2.185858,-2.49614 -3.376303,-2.33025 -1.66043,0.2314 -3.287088,2.38922 -4.135859,1.96818 z"
         id="path47-2-1"
         transform="matrix(0.49289546,0,0,0.47606077,-12.075125,159.31311)" /><path
         style="fill:#1a7fe2;fill-opacity:1;stroke-width:0.845892;stroke-linejoin:round"
         d="m 64.888575,220.72542 c 0.32973,-0.38277 -0.135887,-1.45815 -0.745329,-1.81234 -0.565156,-0.32846 -1.328256,0.44799 -1.959767,0.26411 -0.504915,-0.14702 -0.661277,-0.9525 -1.184973,-1.01244 -0.546662,-0.0626 -0.907986,0.74176 -1.458431,0.74833 -0.645386,0.008 -1.144962,-1.09573 -1.731886,-0.83637 -0.840998,0.37163 -0.938474,2.11837 -0.579307,2.46312 0.359167,0.34475 1.527119,-0.7957 2.347427,-0.71469 0.626612,0.14153 1.002351,1.13148 1.609555,1.08916 0.650612,-0.0453 1.0774,-1.18831 1.664164,-1.10934 0.818419,0.11016 1.620191,1.13741 2.038547,0.93697 z"
         id="path47-9-6-2" /></g></g></svg>
